<svg id="logosandtypes_com" data-name="logosandtypes com" xmlns="http://www.w3.org/2000/svg" viewBox="0 0 150 150"><defs><style>.cls-1{fill:none;}.cls-2{fill:#1b1918;fill-rule:evenodd;}</style></defs><path class="cls-1" d="M0,0H150V150H0Z" transform="translate(0 0)"/><path id="path844" class="cls-2" d="M129.88,61.29c0-12.82-3.56-23.28-18.81-23.28-13.3,0-20.27,6.33-25.13,10.17C84,42,76.37,38,69.4,38c-12.81,0-20,6.33-24.81,10.17C42.8,41.25,41.51,38,39.4,38a8.47,8.47,0,0,0-2.43.44L26.2,42.13c-1.14.3-1.78.89-1.78,1.63,0,3.38,3.08,2.2,3.08,23V83.23c2.72,0,6.68,0,9.42,0v30.08l7.34,0c2,0,2.27-.44,2.27-2.06V59.53c2.11-1.77,9-6.05,15.83-6.05,6.16,0,6.81,6.78,6.81,12.39V83.26h9.49v30.07h7.28c1.94,0,2.27-.44,2.27-2.06V59.53c2.1-1.77,9-6.05,15.82-6.05,6.17,0,6.81,6.78,6.81,12.39V83.26h9.56v30.07h7.21c2,0,2.27-.44,2.27-2.06Z" transform="translate(0 0)"/><path id="path846" class="cls-2" d="M1.1,67.73A7.31,7.31,0,1,1,8.41,75,7.31,7.31,0,0,1,1.1,67.73Z" transform="translate(0 0)"/><path id="path848" class="cls-2" d="M1.1,96.77a7.31,7.31,0,1,1,7.31,7.31A7.3,7.3,0,0,1,1.1,96.77Z" transform="translate(0 0)"/></svg>